<?xml version="1.0" encoding="UTF-8"?>
<svg width="14px" height="14px" viewBox="0 0 14 14" version="1.1" xmlns="http://www.w3.org/2000/svg" xmlns:xlink="http://www.w3.org/1999/xlink">
    <title>下拉</title>
    <g id="3.3通用报表" stroke="none" stroke-width="1" fill="none" fill-rule="evenodd">
        <g id="报表中心" transform="translate(-80.000000, -147.000000)" fill="#595959">
            <g id="编组-8-copy" transform="translate(0.000000, 132.000000)">
                <g id="动作/上拉" transform="translate(20.000000, 12.000000)">
                    <g id="编组-9" transform="translate(67.000000, 10.000000) rotate(-180.000000) translate(-67.000000, -10.000000) translate(60.000000, 3.000000)">
                        <path d="M6.60038967,9.29809704 L2.71130238,5.40900974 C2.50985753,5.2075649 2.51604023,4.89716511 2.71130238,4.70190296 C2.90656452,4.50664082 3.21696431,4.50045812 3.41840916,4.70190296 L6.99952822,8.28312881 L10.5815908,4.70190296 C10.7606529,4.52284088 11.0258029,4.50783019 11.2196533,4.64384396 L11.2886976,4.70190296 C11.4839598,4.89716511 11.4901425,5.2075649 11.2886976,5.40900974 L11.2886976,5.40900974 L7.39961033,9.29809704 C7.28769653,9.41001084 7.14215465,9.45784207 7.00140937,9.44477112 C6.85784535,9.45784207 6.71230347,9.41001084 6.60038967,9.29809704 Z" id="Combined-Shape" transform="translate(7.000000, 7.000000) rotate(-180.000000) translate(-7.000000, -7.000000) "></path>
                    </g>
                </g>
            </g>
        </g>
    </g>
</svg>