<?xml version="1.0" encoding="UTF-8"?>
<svg width="16px" height="16px" viewBox="0 0 16 16" version="1.1" xmlns="http://www.w3.org/2000/svg" xmlns:xlink="http://www.w3.org/1999/xlink">
    <title>mdpi/路径 2</title>
    <defs>
        <path d="M7.33333333,0.5 C11.1072791,0.5 14.1666667,3.55938754 14.1666667,7.33333333 C14.1666667,11.1072791 11.1072791,14.1666667 7.33333333,14.1666667 C3.55938754,14.1666667 0.5,11.1072791 0.5,7.33333333 C0.5,3.55938754 3.55938754,0.5 7.33333333,0.5 Z M7.33333333,1.5 C4.11167229,1.5 1.5,4.11167229 1.5,7.33333333 C1.5,10.5549944 4.11167229,13.1666667 7.33333333,13.1666667 C10.5549944,13.1666667 13.1666667,10.5549944 13.1666667,7.33333333 C13.1666667,4.11167229 10.5549944,1.5 7.33333333,1.5 Z M7.5,6 C7.77614237,6 8,6.22385763 8,6.5 L8,10.5 C8,10.7761424 7.77614237,11 7.5,11 C7.22385763,11 7,10.7761424 7,10.5 L7,6.5 C7,6.22385763 7.22385763,6 7.5,6 Z M7.5,3.83333333 C7.86818983,3.83333333 8.16666667,4.13181017 8.16666667,4.5 C8.16666667,4.86818983 7.86818983,5.16666667 7.5,5.16666667 C7.13181017,5.16666667 6.83333333,4.86818983 6.83333333,4.5 C6.83333333,4.13181017 7.13181017,3.83333333 7.5,3.83333333 Z" id="path-1"></path>
    </defs>
    <g id="3.3通用报表" stroke="none" stroke-width="1" fill="none" fill-rule="evenodd">
        <g id="报表中心" transform="translate(-324.000000, -1087.000000)">
            <g id="学员考试-copy-3" transform="translate(12.000000, 1004.000000)">
                <g id="编组-copy-3" transform="translate(240.000000, 54.000000)">
                    <g id="A05-图标-/-01基础图标-/-01常规-/-提示" transform="translate(72.000000, 29.000000)">
                        <g id="矩形" transform="translate(0.666667, 0.666667)">
                            <mask id="mask-2" fill="white">
                                <use xlink:href="#path-1"></use>
                            </mask>
                            <use id="蒙版" fill="#262626" fill-rule="nonzero" xlink:href="#path-1"></use>
                            <rect fill="#8C8C8C" mask="url(#mask-2)" x="-0.666666667" y="-0.666666667" width="16" height="16"></rect>
                        </g>
                    </g>
                </g>
            </g>
        </g>
    </g>
</svg>