<?xml version="1.0" encoding="UTF-8"?>
<svg width="107px" height="107px" viewBox="0 0 107 107" version="1.1" xmlns="http://www.w3.org/2000/svg" xmlns:xlink="http://www.w3.org/1999/xlink">
    <title>考试机会已用完@2x</title>
    <defs>
        <filter x="-34.6%" y="-168.1%" width="169.2%" height="436.3%" filterUnits="objectBoundingBox" id="filter-1">
            <feGaussianBlur stdDeviation="3.92307692" in="SourceGraphic"></feGaussianBlur>
        </filter>
        <filter x="-25.7%" y="-81.8%" width="151.4%" height="263.6%" filterUnits="objectBoundingBox" id="filter-2">
            <feGaussianBlur stdDeviation="5.92738531" in="SourceGraphic"></feGaussianBlur>
        </filter>
        <path d="M44.1809738,0 C63.8790707,0 80.5662964,6.76136293 86.2665303,16.1006163 L88.3619476,16.1000736 L88.3619476,23.5716718 C87.9502634,36.1854935 68.3278406,46.3458111 44.1809738,46.3458111 C20.034107,46.3458111 0.411684201,36.1854935 0.00639357993,23.5711683 L1.28030919e-12,23.5716718 L1.28030919e-12,16.1000736 L2.09541739,16.1006163 C7.79565122,6.76136293 24.4828769,0 44.1809738,0 Z" id="path-3"></path>
        <filter x="-25.3%" y="-75.9%" width="150.6%" height="251.8%" filterUnits="objectBoundingBox" id="filter-5">
            <feGaussianBlur stdDeviation="5" in="SourceGraphic"></feGaussianBlur>
        </filter>
        <linearGradient x1="50%" y1="68.1770049%" x2="50%" y2="0%" id="linearGradient-6">
            <stop stop-color="#A9C5FF" offset="0%"></stop>
            <stop stop-color="#6687FF" offset="100%"></stop>
        </linearGradient>
        <linearGradient x1="50%" y1="0%" x2="50%" y2="100%" id="linearGradient-7">
            <stop stop-color="#6E96FF" offset="0%"></stop>
            <stop stop-color="#A5D8FF" offset="100%"></stop>
        </linearGradient>
        <filter x="-3.8%" y="-7.3%" width="107.6%" height="114.6%" filterUnits="objectBoundingBox" id="filter-8">
            <feGaussianBlur stdDeviation="0.987897551" in="SourceGraphic"></feGaussianBlur>
        </filter>
        <linearGradient x1="50%" y1="0%" x2="50%" y2="100%" id="linearGradient-9">
            <stop stop-color="#BDF6FF" stop-opacity="0" offset="0%"></stop>
            <stop stop-color="#BDF6FF" offset="100%"></stop>
        </linearGradient>
        <filter x="-7.7%" y="-10.3%" width="115.4%" height="120.7%" filterUnits="objectBoundingBox" id="filter-10">
            <feGaussianBlur stdDeviation="0.987897551" in="SourceGraphic"></feGaussianBlur>
        </filter>
        <linearGradient x1="50%" y1="20.4749798%" x2="50%" y2="100%" id="linearGradient-11">
            <stop stop-color="#BDF6FF" stop-opacity="0" offset="0%"></stop>
            <stop stop-color="#BDF6FF" offset="100%"></stop>
        </linearGradient>
        <filter x="-9.4%" y="-12.5%" width="118.8%" height="125.0%" filterUnits="objectBoundingBox" id="filter-12">
            <feGaussianBlur stdDeviation="0.987897551" in="SourceGraphic"></feGaussianBlur>
        </filter>
        <linearGradient x1="50%" y1="0%" x2="50%" y2="99.2843094%" id="linearGradient-13">
            <stop stop-color="#BDF6FF" stop-opacity="0" offset="0%"></stop>
            <stop stop-color="#BDF6FF" offset="100%"></stop>
        </linearGradient>
        <filter x="-85.7%" y="-94.9%" width="271.4%" height="289.9%" filterUnits="objectBoundingBox" id="filter-14">
            <feGaussianBlur stdDeviation="0.987897551" in="SourceGraphic"></feGaussianBlur>
        </filter>
        <filter x="-85.7%" y="-94.9%" width="271.4%" height="289.9%" filterUnits="objectBoundingBox" id="filter-15">
            <feGaussianBlur stdDeviation="0.987897551" in="SourceGraphic"></feGaussianBlur>
        </filter>
        <linearGradient x1="50%" y1="0%" x2="50%" y2="100%" id="linearGradient-16">
            <stop stop-color="#FFE09C" offset="0%"></stop>
            <stop stop-color="#FF8B2E" offset="100%"></stop>
        </linearGradient>
        <linearGradient x1="50%" y1="0%" x2="50%" y2="100%" id="linearGradient-17">
            <stop stop-color="#FFFFFF" stop-opacity="0.3" offset="0%"></stop>
            <stop stop-color="#FFFFFF" stop-opacity="0" offset="100%"></stop>
        </linearGradient>
        <linearGradient x1="38.3895331%" y1="23.9471179%" x2="77.469146%" y2="100%" id="linearGradient-18">
            <stop stop-color="#FFFFFF" stop-opacity="0" offset="0%"></stop>
            <stop stop-color="#FFFFFF" offset="100%"></stop>
        </linearGradient>
        <linearGradient x1="50%" y1="0%" x2="50%" y2="100%" id="linearGradient-19">
            <stop stop-color="#FFFBE6" offset="0%"></stop>
            <stop stop-color="#FFC270" offset="50.6555944%"></stop>
            <stop stop-color="#E27322" offset="100%"></stop>
        </linearGradient>
        <path d="M20.8709706,24.1666667 C21.4270906,24.1666667 21.877915,24.6174911 21.877915,25.1736111 L21.877915,26.3819444 C21.877915,26.9380645 21.4270906,27.3888889 20.8709706,27.3888889 L5.16263726,27.3888889 C4.60651719,27.3888889 4.15569281,26.9380645 4.15569281,26.3819444 L4.15569281,25.1736111 C4.15569281,24.6174911 4.60651719,24.1666667 5.16263726,24.1666667 L20.8709706,24.1666667 Z M21.406976,0 C21.8113252,-1.40654538e-15 22.1764558,0.241871733 22.3341682,0.614195629 L25.6721962,8.49453428 C25.9865552,9.23666578 25.8281767,10.0947476 25.2696015,10.6757592 L13.8403153,22.563 L13.8411592,17.8296988 C13.8411592,17.4099875 13.5270884,17.0636312 13.121146,17.0128292 L13.0178749,17.0064146 C12.5981636,17.0064146 12.2518073,17.3204853 12.2010053,17.7264278 L12.1945907,17.8296988 L12.1950625,22.689901 L12.1950625,22.689901 L0.756819242,10.6751558 C0.203429963,10.0940133 0.0478705204,9.23979173 0.360868088,8.50087436 L3.70158163,0.614195629 C3.85929409,0.241871733 4.22442465,7.40411564e-16 4.62877389,0 L21.406976,0 Z M13.0178749,5.66880487 C11.1991256,5.66880487 9.72473801,7.11909652 9.72473801,8.90812194 C9.72473801,10.6971474 11.1991256,12.147439 13.0178749,12.147439 C14.8366242,12.147439 16.3110119,10.6971474 16.3110119,8.90812194 C16.3110119,7.11909652 14.8366242,5.66880487 13.0178749,5.66880487 Z" id="path-20"></path>
        <linearGradient x1="13.7393484%" y1="73.2991297%" x2="92.6366957%" y2="73.2991297%" id="linearGradient-22">
            <stop stop-color="#F06600" offset="0%"></stop>
            <stop stop-color="#CB5F00" offset="100%"></stop>
        </linearGradient>
        <filter x="-30.0%" y="-30.0%" width="160.0%" height="160.0%" filterUnits="objectBoundingBox" id="filter-23">
            <feGaussianBlur stdDeviation="0.604166667" in="SourceGraphic"></feGaussianBlur>
        </filter>
        <linearGradient x1="13.7393484%" y1="73.2991297%" x2="92.6366957%" y2="73.2991297%" id="linearGradient-24">
            <stop stop-color="#F06600" offset="0%"></stop>
            <stop stop-color="#CB5F00" offset="100%"></stop>
        </linearGradient>
        <filter x="-10.2%" y="-133.7%" width="120.5%" height="367.4%" filterUnits="objectBoundingBox" id="filter-25">
            <feGaussianBlur stdDeviation="0.604166667" in="SourceGraphic"></feGaussianBlur>
        </filter>
        <linearGradient x1="13.7393484%" y1="73.2991297%" x2="92.6366957%" y2="73.2991297%" id="linearGradient-26">
            <stop stop-color="#F06600" offset="0%"></stop>
            <stop stop-color="#CB5F00" offset="100%"></stop>
        </linearGradient>
        <filter x="-7.0%" y="-13.3%" width="114.0%" height="126.6%" filterUnits="objectBoundingBox" id="filter-27">
            <feGaussianBlur stdDeviation="0.604166667" in="SourceGraphic"></feGaussianBlur>
        </filter>
    </defs>
    <g id="PPT" stroke="none" stroke-width="1" fill="none" fill-rule="evenodd">
        <g id="考核详情-弹窗" transform="translate(-134.000000, -289.000000)">
            <g id="弹窗" transform="translate(32.000000, 264.000000)">
                <g id="考试机会已用完" transform="translate(102.000000, 24.634766)">
                    <path d="M54.7685547,55.3652344 C64.1573954,55.3652344 71.7685547,53.798231 71.7685547,51.8652344 C71.7685547,49.9322378 64.1573954,48.3652344 54.7685547,48.3652344 C45.3797139,48.3652344 37.7685547,49.9322378 37.7685547,51.8652344 C37.7685547,53.798231 45.3797139,55.3652344 54.7685547,55.3652344 Z" id="椭圆形" fill="#0037FF" filter="url(#filter-1)"></path>
                    <g id="底" transform="translate(8.000000, 24.365234)">
                        <path d="M45,70.5409513 C64.0960263,70.5409513 79.5764143,65.6756865 79.5764143,59.6740782 C79.5764143,53.67247 64.0960263,48.8072052 45,48.8072052 C25.9039737,48.8072052 10.4235857,53.67247 10.4235857,59.6740782 C10.4235857,65.6756865 25.9039737,70.5409513 45,70.5409513 Z" id="椭圆形" fill="#3B63F6" filter="url(#filter-2)"></path>
                        <g transform="translate(0.111455, 0.400225)">
                            <g id="矩形" transform="translate(0.888545, 22.702185)">
                                <mask id="mask-4" fill="white">
                                    <use xlink:href="#path-3"></use>
                                </mask>
                                <use id="蒙版" fill="#6586FF" xlink:href="#path-3"></use>
                                <polygon fill="#85A0FF" filter="url(#filter-5)" mask="url(#mask-4)" points="14.8184633 29.2710386 74.0923164 29.2710386 74.0923164 49.0289896 14.8184633 49.0289896"></polygon>
                            </g>
                            <g id="盖" transform="translate(0.888545, 15.384425)">
                                <path d="M44.1809738,46.3458111 C68.5814519,46.3458111 88.3619476,35.9709479 88.3619476,23.1729055 C88.3619476,10.3748632 68.5814519,7.46069873e-13 44.1809738,7.46069873e-13 C19.7804958,7.46069873e-13 4.97379915e-14,10.3748632 4.97379915e-14,23.1729055 C4.97379915e-14,35.9709479 19.7804958,46.3458111 44.1809738,46.3458111 Z" id="椭圆形备份-3" fill="url(#linearGradient-6)"></path>
                                <path d="M44.1809738,46.3458111 C68.5814519,46.3458111 88.3619476,35.9709479 88.3619476,23.1729055 C88.3619476,10.3748632 68.5814519,7.46069873e-13 44.1809738,7.46069873e-13 C19.7804958,7.46069873e-13 -7.10542736e-15,10.3748632 -7.10542736e-15,23.1729055 C-7.10542736e-15,35.9709479 19.7804958,46.3458111 44.1809738,46.3458111 Z" id="椭圆形备份-3" stroke="url(#linearGradient-7)" stroke-width="0.5"></path>
                            </g>
                            <g id="花纹" opacity="0.2" transform="translate(2.388545, 0.000000)">
                                <path d="M42.9264108,18.2761047 C21.4107473,18.2761047 3.90445751,27.2536892 3.90445751,38.5280045 C3.90445751,49.8023198 21.4107473,58.7799043 42.9264108,58.7799043 C64.4420743,58.7799043 81.9483641,49.8023198 81.9483641,38.5280045 C81.9483641,27.2536892 64.4420743,18.2761047 42.9264108,18.2761047 Z M42.9264108,19.2640023 C63.9676059,19.2640023 80.9604665,27.9782897 80.9604665,38.5280045 C80.9604665,49.0777193 63.9676059,57.7920068 42.9264108,57.7920068 C21.8852156,57.7920068 4.89235507,49.0777193 4.89235507,38.5280045 C4.89235507,27.9782897 21.8852156,19.2640023 42.9264108,19.2640023 Z" id="椭圆形" fill="#3B63F6" fill-rule="nonzero" filter="url(#filter-8)"></path>
                                <ellipse id="椭圆形备份-4" stroke="url(#linearGradient-9)" stroke-width="0.987897551" cx="42.9264108" cy="38.5280045" rx="38.5280045" ry="19.757951"></ellipse>
                                <path d="M59.2193503,43.9681085 L60.0290847,44.5340342 C56.7354906,49.2465547 50.1851391,52.2522072 42.9264108,52.2522072 C36.8459979,52.2522072 31.2328379,50.1468649 27.6154185,46.6297916 L27.3478779,46.3633749 L28.0533295,45.6717973 C31.4641612,49.1510548 36.949557,51.2643097 42.9264108,51.2643097 C49.8790488,51.2643097 56.1221356,48.3996467 59.2193503,43.9681085 Z M42.9264108,23.6031782 C48.2453074,23.6031782 53.2205589,25.2115156 56.8247828,28.0017186 L57.1586307,28.2667496 L56.5349277,29.0328671 C53.0891487,26.2276282 48.1906225,24.5910758 42.9264108,24.5910758 C32.8058347,24.5910758 24.6503061,30.6004127 24.6503061,37.9276927 C24.6503061,39.0092593 24.8272102,40.0735614 25.1738362,41.1051935 L25.3117627,41.490494 L24.388328,41.8415068 C23.9085665,40.5793637 23.6624085,39.2656312 23.6624085,37.9276927 C23.6624085,29.9781518 32.3141583,23.6031782 42.9264108,23.6031782 Z M60.9522381,32.8576993 C61.7043492,34.3387715 62.1229605,35.9105241 62.1829118,37.5235932 L62.190413,37.9276927 L61.2025155,37.9276927 C61.2025155,36.4540335 60.873981,35.0130612 60.2370519,33.6453713 L60.0714064,33.3049991 L60.9522381,32.8576993 Z" id="形状" fill="#3B63F6" fill-rule="nonzero" filter="url(#filter-10)"></path>
                                <path d="M59.2193503,43.9681085 L60.0290847,44.5340342 C56.7354906,49.2465547 50.1851391,52.2522072 42.9264108,52.2522072 C36.8459979,52.2522072 31.2328379,50.1468649 27.6154185,46.6297916 L27.3478779,46.3633749 L28.0533295,45.6717973 C31.4641612,49.1510548 36.949557,51.2643097 42.9264108,51.2643097 C49.8790488,51.2643097 56.1221356,48.3996467 59.2193503,43.9681085 Z M42.9264108,23.6031782 C48.2453074,23.6031782 53.2205589,25.2115156 56.8247828,28.0017186 L57.1586307,28.2667496 L56.5349277,29.0328671 C53.0891487,26.2276282 48.1906225,24.5910758 42.9264108,24.5910758 C32.8058347,24.5910758 24.6503061,30.6004127 24.6503061,37.9276927 C24.6503061,39.0092593 24.8272102,40.0735614 25.1738362,41.1051935 L25.3117627,41.490494 L24.388328,41.8415068 C23.9085665,40.5793637 23.6624085,39.2656312 23.6624085,37.9276927 C23.6624085,29.9781518 32.3141583,23.6031782 42.9264108,23.6031782 Z M60.9522381,32.8576993 C61.7043492,34.3387715 62.1229605,35.9105241 62.1829118,37.5235932 L62.190413,37.9276927 L61.2025155,37.9276927 C61.2025155,36.4540335 60.873981,35.0130612 60.2370519,33.6453713 L60.0714064,33.3049991 L60.9522381,32.8576993 Z" id="形状" fill="url(#linearGradient-11)" fill-rule="nonzero"></path>
                                <path d="M52.7079939,42.3496674 L56.4886415,44.0628321 C53.706058,47.5322164 48.6277563,49.7824634 42.9264108,49.7824634 C38.0326579,49.7824634 33.5979424,48.1245588 30.6800686,45.4608267 L33.6381287,42.7978439 C35.7905888,44.6192448 39.1183578,45.8308731 42.9264108,45.8308731 C47.03887,45.8308731 50.5911907,44.4177935 52.7079939,42.3496674 Z M28.4395395,33.1350413 L32.0689309,34.7964705 C31.4262109,35.7687061 31.0716402,36.8316194 31.0716402,37.9276927 C31.0716402,38.7515134 31.2719439,39.5566012 31.6443488,40.3185345 C31.2609175,40.4621468 30.0211318,40.9258831 27.9258625,41.7096093 C27.4029946,40.5303581 27.12005,39.2601148 27.12005,37.9276927 C27.12005,36.2064332 27.5922331,34.5889387 28.4395395,33.1350413 Z M42.9264108,26.0729221 C51.540772,26.0729221 58.7327716,31.2100647 58.7327716,37.9276927 C58.7327716,38.9720145 58.558957,39.9781394 58.2330049,40.9327047 L54.5386978,39.492036 C54.69783,38.9827538 54.7811814,38.4591209 54.7811814,37.9276927 C54.7811814,33.7333058 49.5888706,30.0245123 42.9264108,30.0245123 C40.7306377,30.0245123 38.6945507,30.4273577 36.9513956,31.1176643 L32.818779,28.7870499 C35.5747983,27.0806325 39.1110981,26.0729221 42.9264108,26.0729221 Z" id="形状结合" fill="#3B63F6" fill-rule="nonzero" filter="url(#filter-12)"></path>
                                <path d="M52.7079939,42.3496674 L56.4886415,44.0628321 C53.706058,47.5322164 48.6277563,49.7824634 42.9264108,49.7824634 C38.0326579,49.7824634 33.5979424,48.1245588 30.6800686,45.4608267 L33.6381287,42.7978439 C35.7905888,44.6192448 39.1183578,45.8308731 42.9264108,45.8308731 C47.03887,45.8308731 50.5911907,44.4177935 52.7079939,42.3496674 Z M28.4395395,33.1350413 L32.0689309,34.7964705 C31.4262109,35.7687061 31.0716402,36.8316194 31.0716402,37.9276927 C31.0716402,38.7515134 31.2719439,39.5566012 31.6443488,40.3185345 C31.2609175,40.4621468 30.0211318,40.9258831 27.9258625,41.7096093 C27.4029946,40.5303581 27.12005,39.2601148 27.12005,37.9276927 C27.12005,36.2064332 27.5922331,34.5889387 28.4395395,33.1350413 Z M42.9264108,26.0729221 C51.540772,26.0729221 58.7327716,31.2100647 58.7327716,37.9276927 C58.7327716,38.9720145 58.558957,39.9781394 58.2330049,40.9327047 L54.5386978,39.492036 C54.69783,38.9827538 54.7811814,38.4591209 54.7811814,37.9276927 C54.7811814,33.7333058 49.5888706,30.0245123 42.9264108,30.0245123 C40.7306377,30.0245123 38.6945507,30.4273577 36.9513956,31.1176643 L32.818779,28.7870499 C35.5747983,27.0806325 39.1110981,26.0729221 42.9264108,26.0729221 Z" id="形状结合" fill="url(#linearGradient-13)" fill-rule="nonzero"></path>
                                <polygon id="路径-19" fill="#3B63F6" filter="url(#filter-14)" points="25.5838441 42.4136304 27.3478779 45.2075281 23.8902365 45.5351792"></polygon>
                                <polygon id="路径-19" fill="#3B63F6" filter="url(#filter-15)" transform="translate(59.389851, 30.813181) rotate(-186.000000) translate(-59.389851, -30.813181) " points="59.3546382 29.2524066 61.118672 32.0463043 57.6610306 32.3739554"></polygon>
                                <polygon id="路径-19" fill="#BDF6FF" points="25.5838441 42.4136304 27.3478779 45.2075281 23.8902365 45.5351792"></polygon>
                                <polygon id="路径-19" fill="#BDF6FF" transform="translate(59.389851, 30.813181) rotate(-186.000000) translate(-59.389851, -30.813181) " points="59.3546382 29.2524066 61.118672 32.0463043 57.6610306 32.3739554"></polygon>
                            </g>
                        </g>
                    </g>
                    <g id="机会用完" transform="translate(9.768555, 5.365234)">
                        <g id="编组-17" transform="translate(9.731445, 0.000000)">
                            <circle id="椭圆形" fill-opacity="0.1" fill="url(#linearGradient-16)" cx="34" cy="34" r="34"></circle>
                            <circle id="椭圆形" fill="url(#linearGradient-16)" cx="34" cy="34" r="28.7698413"></circle>
                            <g id="编组-15" transform="translate(5.000000, 5.000000)">
                                <g id="装饰" transform="translate(0.906250, 0.906250)">
                                    <g id="编组" transform="translate(37.766779, 38.665500)" stroke="#FFFFFF" stroke-width="0.5">
                                        <line x1="9.28109484" y1="3.30090605" x2="11.5418492" y2="-0.870995423" id="路径-22" stroke-opacity="0.8" transform="translate(10.411472, 1.214955) rotate(-270.000000) translate(-10.411472, -1.214955) "></line>
                                        <line x1="8.05729002" y1="0.561827324" x2="12.1666487" y2="2.93436669" id="路径-22" stroke-opacity="0.75"></line>
                                        <line x1="7.69152906" y1="1.16789498" x2="11.715584" y2="3.68240361" id="路径-22" stroke-opacity="0.65"></line>
                                        <line x1="7.30483946" y1="1.76082857" x2="11.238688" y2="4.41424292" id="路径-22" stroke-opacity="0.55"></line>
                                        <line x1="6.89769234" y1="2.33990568" x2="10.7365417" y2="5.12899298" id="路径-22" stroke-opacity="0.5"></line>
                                        <line x1="6.47058374" y1="2.90442081" x2="10.2097568" y2="5.82578298" id="路径-22" stroke-opacity="0.4"></line>
                                        <line x1="6.02403403" y1="3.45368617" x2="9.65897522" y2="6.50376398" id="路径-22" stroke-opacity="0.3"></line>
                                        <line x1="5.55858726" y1="3.98703257" x2="9.08486796" y2="7.16210998" id="路径-22" stroke-opacity="0.2"></line>
                                        <line x1="5.0748105" y1="4.50381022" x2="8.48813449" y2="7.80001888" id="路径-22" stroke-opacity="0.15"></line>
                                        <line x1="4.57329317" y1="5.0033895" x2="7.86950183" y2="8.41671348" id="路径-22" stroke-opacity="0.13"></line>
                                        <line x1="4.05464629" y1="5.48516174" x2="7.2297237" y2="9.01144244" id="路径-22" stroke-opacity="0.11"></line>
                                        <line x1="3.51950174" y1="5.94853998" x2="6.56957955" y2="9.58348117" id="路径-22" stroke-opacity="0.08"></line>
                                        <line x1="2.96851152" y1="6.39295967" x2="5.88987369" y2="10.1321327" id="路径-22" stroke-opacity="0.06"></line>
                                        <line x1="2.40234693" y1="6.81787935" x2="5.19143422" y2="10.6567287" id="路径-22" stroke-opacity="0.05"></line>
                                        <line x1="1.82169774" y1="7.22278133" x2="4.47511209" y2="11.1566299" id="路径-22" stroke-opacity="0.05"></line>
                                        <line x1="1.2272714" y1="7.60717228" x2="3.74178003" y2="11.6312273" id="路径-22" stroke-opacity="0.05"></line>
                                        <line x1="0.619792109" y1="7.97058389" x2="2.99233147" y2="12.0799426" id="路径-22" stroke-opacity="0.05"></line>
                                        <line x1="0" y1="8.3125734" x2="2.22767953" y2="12.5022292" id="路径-22" stroke-opacity="0.05"></line>
                                    </g>
                                    <g id="编组-7" opacity="0.3" transform="translate(1.450000, 1.993750)">
                                        <circle id="椭圆形" stroke-opacity="0.3" stroke="#FFFFFF" stroke-width="0.847782258" cx="26.28125" cy="26.28125" r="26.28125"></circle>
                                        <path d="M7.75997312,32.3950845 C10.3247988,40.1693081 17.6477725,45.7802419 26.28125,45.7802419 C30.7221051,45.7802419 34.8162235,44.2956851 38.0943974,41.7957788" id="路径" stroke-opacity="0.3" stroke="#FFFFFF" stroke-width="1.69556452"></path>
                                        <path d="M26.28125,46.6280242 C37.5184631,46.6280242 46.6280242,37.5184631 46.6280242,26.28125 C46.6280242,15.0440369 37.5184631,5.93447581 26.28125,5.93447581" id="路径" stroke="url(#linearGradient-17)" stroke-width="0.656347555"></path>
                                        <path d="M26.28125,5.93447581 C17.1589704,5.93447581 9.43882673,11.9377334 6.85597272,20.2090949" id="路径" stroke-opacity="0.3" stroke="#FFFFFF" stroke-width="1.69556452"></path>
                                    </g>
                                    <path d="M51.0682142,40.2398986 C57.7303002,27.7103372 52.9737716,12.1524331 40.4442102,5.49034719 L36.2626111,13.3395336 L36.2626111,13.3395336 L28.9473398,27.2086058 L28.9473398,27.2086058 L28.3244054,28.3934167 L28.3244054,28.3934167 L35.2627019,31.9823892 L35.2627019,31.9823892 L39.6926483,34.2842538 L39.6926483,34.2842538 L43.966127,36.5134914 L43.966127,36.5134914 L49.0879426,39.1979068 L49.0879426,39.1979068 L51.0682142,40.2398986 L51.0682142,40.2398986 Z" id="椭圆形" fill-opacity="0.3" fill="url(#linearGradient-18)"></path>
                                    <path d="M28.2803919,2.4530086 L28.2803919,19.6171047 M28.2803919,33.6403756 L28.2803919,53.6017151" id="形状" stroke-opacity="0.2" stroke="#FFFFFF" stroke-width="0.54375" opacity="0.4" stroke-linecap="square"></path>
                                    <line x1="27.3930228" y1="51.8815204" x2="29.1350136" y2="51.8815204" id="直线" stroke-opacity="0.2" stroke="#FFFFFF" stroke-width="0.5" stroke-linecap="square"></line>
                                    <line x1="27.3930228" y1="42.1761429" x2="29.1350136" y2="42.1761429" id="直线" stroke-opacity="0.2" stroke="#FFFFFF" stroke-width="0.5" stroke-linecap="square"></line>
                                    <line x1="27.3930228" y1="44.9491079" x2="29.1350136" y2="44.9491079" id="直线" stroke-opacity="0.2" stroke="#FFFFFF" stroke-width="0.5" stroke-linecap="square"></line>
                                    <line x1="27.3930228" y1="46.3355904" x2="29.1350136" y2="46.3355904" id="直线" stroke-opacity="0.2" stroke="#FFFFFF" stroke-width="0.5" stroke-linecap="square"></line>
                                    <line x1="27.3930228" y1="47.7220729" x2="29.1350136" y2="47.7220729" id="直线" stroke-opacity="0.2" stroke="#FFFFFF" stroke-width="0.5" stroke-linecap="square"></line>
                                    <line x1="27.3930228" y1="49.1085554" x2="29.1350136" y2="49.1085554" id="直线" stroke-opacity="0.2" stroke="#FFFFFF" stroke-width="0.5" stroke-linecap="square"></line>
                                    <line x1="27.3930228" y1="50.4950379" x2="29.1350136" y2="50.4950379" id="直线" stroke-opacity="0.2" stroke="#FFFFFF" stroke-width="0.5" stroke-linecap="square"></line>
                                    <line x1="27.3930228" y1="43.5626254" x2="29.1350136" y2="43.5626254" id="直线" stroke-opacity="0.2" stroke="#FFFFFF" stroke-width="0.5" stroke-linecap="square"></line>
                                    <path d="M53.6753522,28.1468951 L43.2614706,28.1468951 M14.1560613,28.1468951 L2.81547124,28.1468951" id="形状" stroke-opacity="0.2" stroke="#FFFFFF" stroke-width="0.54375" opacity="0.4" stroke-linecap="square"></path>
                                </g>
                                <path d="M29,0.23015873 C44.8891446,0.23015873 57.7698413,13.1108554 57.7698413,29 C57.7698413,44.8891446 44.8891446,57.7698413 29,57.7698413 C13.1108554,57.7698413 0.23015873,44.8891446 0.23015873,29 C0.23015873,13.1108554 13.1108554,0.23015873 29,0.23015873 Z M29,1.66865079 C13.9053126,1.66865079 1.66865079,13.9053126 1.66865079,29 C1.66865079,44.0946874 13.9053126,56.3313492 29,56.3313492 C44.0946874,56.3313492 56.3313492,44.0946874 56.3313492,29 C56.3313492,13.9053126 44.0946874,1.66865079 29,1.66865079 Z" id="形状结合" fill="url(#linearGradient-19)"></path>
                                <g id="形状结合-+-路径-20-蒙版" transform="translate(15.984272, 17.319444)">
                                    <mask id="mask-21" fill="white">
                                        <use xlink:href="#path-20"></use>
                                    </mask>
                                    <use id="蒙版" fill="#FFFFFF" xlink:href="#path-20"></use>
                                    <path d="M13.015728,11.3445813 C14.6840882,11.3445813 16.0365613,9.99210812 16.0365613,8.32374794 C16.0365613,6.65538776 14.6840882,5.3029146 13.015728,5.3029146 C11.3473678,5.3029146 9.99489466,6.65538776 9.99489466,8.32374794 C9.99489466,9.99210812 11.3473678,11.3445813 13.015728,11.3445813 Z" id="椭圆形" fill="url(#linearGradient-22)" filter="url(#filter-23)" mask="url(#mask-21)"></path>
                                    <path d="M4.15569281,26.0668072 C4.15569281,26.6229273 4.60651719,27.0737517 5.16263726,27.0737517 L5.16263726,27.0737517 L20.8709706,27.0737517 C21.4270906,27.0737517 21.877915,26.6229273 21.877915,26.0668072 L21.877915,26.0668072 L21.877915,26.4155011 C21.877915,26.9716211 21.4270906,27.4224455 20.8709706,27.4224455 L5.16263726,27.4224455 C4.60651719,27.4224455 4.15569281,26.9716211 4.15569281,26.4155011 Z" id="形状结合" fill="url(#linearGradient-24)" filter="url(#filter-25)" mask="url(#mask-21)"></path>
                                    <path d="M0,10.6089562 C0.56472637,10.1703028 1.02093661,10.1174071 1.36863073,10.4502691 C1.75606834,10.8515554 5.36472166,14.6793046 12.1945907,21.9335166 C12.1945907,20.4608767 12.1945907,18.9939116 12.1945907,17.5326212 C12.1945907,17.1579107 12.4558979,16.8999006 13.015728,16.8999006 C13.5755581,16.8999006 13.8411592,17.1573637 13.8411592,17.5326212 C13.8411592,18.9939116 13.8411592,20.4608767 13.8411592,21.9335166 C17.4427148,18.1058699 21.0386795,14.2970501 24.6290535,10.5070572 C24.9161429,10.2359146 25.4730792,10.3376762 25.8317509,10.6089562 C26.0708654,10.7898096 22.0740015,15.2040007 13.8411592,23.8515294 L12.1945907,23.8515294 L0,10.6089562 Z" id="路径-20" fill="url(#linearGradient-26)" opacity="0.5" filter="url(#filter-27)" mask="url(#mask-21)"></path>
                                </g>
                            </g>
                        </g>
                        <path d="M9.34013284,14.0058679 L9.66069631,14.0066491 L9.66069631,14.0066491 C6.76520613,19.1889819 5.08758066,24.9694173 4.7822032,30.9932011 C4.77809799,31.0492212 4.77541951,31.1058755 4.77285942,31.1625486 L4.7822032,30.9932011 C4.74843419,31.6593182 4.73144531,32.3284111 4.73144531,33 C4.73144531,33.3351225 4.73567562,33.6696232 4.74411023,34.0034424 C4.74709497,34.1384901 4.75109216,34.2735949 4.75576012,34.4085966 L4.74411023,34.0034424 C4.74922824,34.2059994 4.75589424,34.4083054 4.76410242,34.6103473 L4.75576012,34.4085966 C4.76256835,34.6054969 4.77080348,34.8021779 4.78046194,34.9986291 L4.76410242,34.6103473 C5.01188676,40.7094852 6.66503662,46.5678377 9.56383299,51.8189443 L9.67748141,52.0209337 L9.67748141,52.0209337 C9.0597229,52.0209337 7.8392334,52.003437 7.39164011,52.0027779 C5.81909752,49.0017767 4.62745892,45.8212391 3.84292755,42.5217203 C2.78890441,42.5410696 2.09801686,42.5510163 1.77136095,42.5510163 C1.08235665,39.4387332 0.731445312,36.2416738 0.731445312,33 C0.731445312,29.8037013 1.0726009,26.6507295 1.74266415,23.5795567 C2.15598473,23.5795567 2.84722289,23.5826461 3.81637863,23.5888248 C4.60095234,20.2497839 5.80153026,17.031962 7.39158454,13.9976853 L7.756441,13.9984666 C8.24104649,14.0001637 8.89571913,14.0041708 9.34013284,14.0058679 Z M80.100365,14.0532232 C81.6443073,17.0104907 82.8187353,20.1416696 83.5985846,23.3888608 C84.327647,23.3831728 84.9150614,23.3798022 85.3604045,23.3786575 L85.6758021,23.3782159 L85.6758021,23.3782159 C86.3751741,26.512699 86.7314453,29.7336683 86.7314453,33 C86.7314453,36.2281407 86.3834578,39.4120392 85.7001408,42.5120348 L85.5380228,42.5117413 C85.1747451,42.5105955 84.5369954,42.5060955 83.6247737,42.4982411 C82.8409204,45.8066726 81.6471834,48.9953692 80.0707291,52.003437 C79.218811,52.016826 78.5560913,52.016826 77.7890716,52.016826 C80.7943457,46.6467973 82.4915048,40.6326883 82.7078146,34.3701596 C82.711761,34.2714674 82.7147306,34.1724053 82.7173389,34.0732893 L82.7078146,34.3701596 C82.7235463,33.9147029 82.7314453,33.4579323 82.7314453,33 C82.7314453,26.3064948 81.0438183,19.861156 77.8759344,14.1392254 C77.8759344,14.1392254 79.2869635,14.0532232 80.100365,14.0532232 Z" id="形状结合" stroke="#FFD68F" stroke-width="0.2" fill-opacity="0.3" fill="#FFA752" fill-rule="nonzero"></path>
                        <path d="M35.5043499,1.79617405 C23.5489702,4.63985507 14.1024395,13.9573866 11.0736246,25.8399018" id="路径" stroke="#FFD891" stroke-width="0.834782609" opacity="0.3"></path>
                        <path d="M76.6619173,2.11981667 C64.7065376,4.96349769 55.2600069,14.2810292 52.231192,26.1635444" id="路径" stroke="#FFD891" stroke-width="0.834782609" opacity="0.3" transform="translate(64.446555, 14.141681) rotate(-270.000000) translate(-64.446555, -14.141681) "></path>
                        <path d="M76.3382747,42.277384 C64.382895,45.1210651 54.9363642,54.4385966 51.9075494,66.3211118" id="路径" stroke="#FFD891" stroke-width="0.834782609" opacity="0.3" transform="translate(64.122912, 54.299248) rotate(-180.000000) translate(-64.122912, -54.299248) "></path>
                        <path d="M35.1807073,41.9537414 C23.2253276,44.7974224 13.7787969,54.114954 10.749982,65.9974692" id="路径" stroke="#FFD891" stroke-width="0.834782609" opacity="0.3" transform="translate(22.965345, 53.975605) rotate(-90.000000) translate(-22.965345, -53.975605) "></path>
                    </g>
                </g>
            </g>
        </g>
    </g>
</svg>